<svg width="652" height="466" viewBox="0 0 652 466" fill="none" xmlns="http://www.w3.org/2000/svg">
<g clip-path="url(#clip0_230_276)">
<path d="M260.69 137.26L215.69 231.26H359.69L306.69 137.26H260.69Z" fill="url(#paint0_linear_230_276)"/>
<path d="M283.19 91.77C283.19 82.2222 279.398 73.0655 272.646 66.3142C265.895 59.5629 256.738 55.77 247.19 55.77C237.643 55.77 228.486 59.5629 221.735 66.3142C214.983 73.0655 211.19 82.2222 211.19 91.77V237.77" stroke="#1C1737" stroke-width="3" stroke-miterlimit="10"/>
<path d="M198.69 233.26H240.69V238.26H198.69V233.26Z" fill="#FFBB4F"/>
<path d="M283.52 95.71H283.86C289.915 95.71 295.722 98.1153 300.004 102.397C304.285 106.678 306.69 112.485 306.69 118.54V137.54H260.69V118.54C260.69 112.485 263.096 106.678 267.377 102.397C271.659 98.1153 277.466 95.71 283.52 95.71V95.71Z" fill="#FFBA4F"/>
<path d="M278.04 87.37H289.34V97.86H278.04V87.37Z" fill="#FFBA4F"/>
<path d="M120.19 391.25C121.181 391.408 122.194 391.34 123.155 391.053C124.115 390.766 124.999 390.266 125.74 389.59C130.89 385.35 130.95 377.59 130.41 370.94C128.97 353.4 126.41 335.86 120.99 319.11C119.24 313.67 117.2 308.34 115.07 303.04C106.602 282.066 96.5741 261.756 85.0703 242.28C88.3003 267.66 91.5303 293.05 95.6403 318.28C99.4103 341.44 104.04 364.86 114.79 385.72C116 388.11 117.6 390.66 120.19 391.25Z" fill="#9D8BF0"/>
<g style="mix-blend-mode:multiply">
<g style="mix-blend-mode:multiply">
<path d="M88.9997 272.63C90.6897 273.63 92.4897 275.32 94.3897 275.11C96.8197 274.85 97.6697 271.81 97.9297 269.38C98.0139 268.457 98.1949 267.545 98.4697 266.66C97.2297 264.227 95.9664 261.81 94.6797 259.41C94.4497 259.81 94.1997 260.21 93.9297 260.59C92.4701 262.533 90.3241 263.846 87.9297 264.26C88.263 267.053 88.6197 269.843 88.9997 272.63ZM98.1397 299.53C100.44 299.58 102.14 297.32 102.74 295.1C103.34 292.88 103.2 290.49 103.91 288.31C104.155 287.505 104.572 286.764 105.131 286.135C105.69 285.507 106.379 285.007 107.15 284.67C106.35 282.9 105.55 281.14 104.72 279.38C104.037 279.941 103.296 280.427 102.51 280.83C98.9397 283.19 98.4097 289.5 94.1697 290.05C93.1746 290.146 92.1733 289.948 91.2897 289.48C91.6964 292.38 92.113 295.277 92.5397 298.17C94.2197 297.91 96.2197 299.49 98.1397 299.53V299.53ZM125.74 389.59C130.89 385.35 130.95 377.59 130.41 370.94C130.17 368.09 129.89 365.24 129.59 362.4C126.14 364.23 122.91 366.58 121.86 370.22C121.24 372.33 121.29 374.95 119.47 376.22C118.479 376.772 117.352 377.032 116.22 376.97L110.78 377.21C112.02 380.11 113.353 382.967 114.78 385.78C116 388.14 117.59 390.69 120.18 391.28C121.174 391.435 122.19 391.364 123.153 391.071C124.116 390.779 125 390.272 125.74 389.59V389.59ZM111.36 361.65C112.64 361.97 114.11 362.44 115.16 361.65C115.806 361.015 116.245 360.199 116.42 359.31C117.319 356.862 118.885 354.714 120.939 353.108C122.994 351.502 125.457 350.502 128.05 350.22C127.5 346.57 126.88 342.93 126.16 339.31L125.98 339.38C122.69 340.51 119.34 341.86 116.98 344.38C114.62 346.9 113.25 350.64 110.29 352.62C108.082 353.942 105.482 354.448 102.94 354.05C103.606 356.57 104.326 359.077 105.1 361.57C107.165 361.119 109.306 361.147 111.36 361.65ZM103.73 319.58C107.01 319.23 110.32 316.89 110.63 313.58C110.88 310.89 109.34 307.52 111.46 305.84C112.56 304.96 114.3 304.95 115.73 304.69L115.07 303.02C114.17 300.807 113.256 298.603 112.33 296.41C112.226 296.964 111.986 297.483 111.63 297.92C110.56 299.23 108.63 299.47 107.33 300.57C104.33 303.13 105.97 309.05 102.53 310.94C99.9597 312.35 97.0797 310.18 94.2097 309.22C94.6697 312.22 95.1397 315.22 95.6197 318.17C98.1848 319.236 100.955 319.718 103.73 319.58V319.58ZM100.06 342.2C100.226 340.516 100.658 338.869 101.34 337.32C102.53 334.78 104.99 332.62 107.8 332.65C110.26 332.65 112.5 334.33 114.96 334.29C118.3 334.23 121.06 331.14 123.96 329.7C123.1 326.26 122.15 322.83 121.07 319.44C121.004 319.965 120.894 320.484 120.74 320.99C120.351 322.158 119.708 323.226 118.857 324.117C118.006 325.007 116.969 325.698 115.82 326.14C111.04 327.95 105.13 325.14 100.82 327.9C99.5788 328.742 98.5515 329.861 97.8197 331.17C98.5264 334.863 99.273 338.54 100.06 342.2V342.2Z" fill="#1C1737"/>
</g>
</g>
<path d="M137.05 391.69C136.076 391.928 135.061 391.944 134.08 391.738C133.099 391.533 132.176 391.109 131.38 390.5C125.88 386.72 125.16 379 125.14 372.32C125.07 354.72 126.14 337.03 130.14 319.87C131.42 314.31 132.99 308.82 134.66 303.36C141.301 281.738 149.558 260.645 159.36 240.26C158.31 265.82 157.26 291.39 155.36 316.91C153.59 340.31 150.98 364.03 142.05 385.74C141 388.19 139.58 390.88 137.05 391.69V391.69Z" fill="#9D8BF0"/>
<path d="M158 270.82C156.4 271.94 154.76 273.82 152.84 273.76C150.41 273.71 149.3 270.76 148.84 268.36C148.677 267.445 148.419 266.551 148.07 265.69C149.07 263.16 150.15 260.69 151.22 258.14C151.49 258.52 151.77 258.9 152.07 259.25C153.703 261.066 155.966 262.193 158.4 262.4L158 270.82ZM151.18 298.41C148.89 298.66 146.99 296.56 146.18 294.41C145.37 292.26 145.34 289.86 144.44 287.74C144.122 286.962 143.642 286.26 143.032 285.682C142.421 285.105 141.694 284.664 140.9 284.39C141.55 282.57 142.19 280.74 142.9 278.92C143.634 279.414 144.414 279.836 145.23 280.18C148.98 282.18 150.05 288.46 154.32 288.65C155.32 288.66 156.301 288.374 157.14 287.83C156.98 290.763 156.813 293.687 156.64 296.6C154.94 296.46 153.08 298.2 151.18 298.41V298.41ZM131.38 390.5C125.88 386.72 125.16 379 125.14 372.32C125.14 369.46 125.14 366.6 125.22 363.74C128.81 365.27 132.22 367.33 133.59 370.87C134.38 372.92 134.59 375.54 136.48 376.61C137.516 377.076 138.663 377.243 139.79 377.09L145.23 376.86C144.23 379.86 143.16 382.81 141.96 385.74C140.96 388.19 139.58 390.88 137.05 391.69C136.076 391.928 135.061 391.944 134.08 391.738C133.098 391.533 132.176 391.109 131.38 390.5V390.5ZM143.32 361.44C142.07 361.86 140.65 362.44 139.53 361.76C138.833 361.183 138.328 360.409 138.08 359.54C136.973 357.177 135.229 355.171 133.043 353.747C130.858 352.323 128.318 351.538 125.71 351.48C125.943 347.793 126.276 344.127 126.71 340.48L126.89 340.53C130.26 341.38 133.71 342.44 136.31 344.76C138.91 347.08 140.56 350.67 143.67 352.39C145.98 353.53 148.62 353.814 151.12 353.19C150.66 355.76 150.12 358.32 149.61 360.87C147.497 360.567 145.343 360.762 143.32 361.44V361.44ZM147.32 318.87C144.03 318.8 140.52 316.75 139.94 313.5C139.45 310.84 140.7 307.36 138.45 305.86C137.28 305.08 135.54 305.21 134.1 305.08L134.61 303.36C135.31 301.08 136.04 298.81 136.78 296.54C136.927 297.082 137.209 297.577 137.6 297.98C138.78 299.19 140.74 299.26 142.12 300.26C145.3 302.55 144.2 308.58 147.78 310.17C150.46 311.36 153.15 308.95 155.93 307.75C155.72 310.75 155.51 313.75 155.28 316.75C152.816 318.037 150.097 318.761 147.32 318.87V318.87ZM152.91 341.09C152.603 339.423 152.033 337.817 151.22 336.33C149.82 333.9 147.22 331.97 144.38 332.24C141.94 332.48 139.85 334.31 137.38 334.48C134.05 334.71 131.03 331.87 128 330.68C128.57 327.18 129.22 323.68 130 320.21C130.103 320.727 130.257 321.233 130.46 321.72C130.943 322.854 131.673 323.867 132.597 324.683C133.52 325.5 134.615 326.1 135.8 326.44C140.71 327.83 146.37 324.56 150.9 326.91C152.203 327.642 153.316 328.669 154.15 329.91C153.8 333.65 153.39 337.37 152.91 341.09V341.09Z" fill="#1C1737"/>
<path d="M138.1 392.63C138.1 392.63 149.81 332.63 126.86 219.77C126.86 219.77 114.68 262.4 114.68 316.28C114.68 370.16 125.45 390.28 125.45 390.28L138.1 392.63Z" fill="#D7CFFF"/>
<path d="M121.42 253.94C123.16 254.37 124.16 256.31 125.86 256.87C128.44 257.72 130.77 255.1 132.04 252.7L132.67 251.56C132.044 247.713 131.377 243.79 130.67 239.79C130.32 241.45 129.8 242.99 128.49 243.88C126.99 244.88 124.96 244.62 123.2 244.15C122.63 244 122.08 243.8 121.53 243.62C120.93 246.8 120.334 250.24 119.74 253.94C120.294 253.825 120.866 253.825 121.42 253.94V253.94ZM121.59 289.7C122.72 290.53 123.42 291.89 124.59 292.6C126.48 293.72 128.97 292.88 130.59 291.46C132.21 290.04 133.39 288.1 134.95 286.56C135.588 285.932 136.382 285.486 137.25 285.27C136.784 281.11 136.257 276.833 135.67 272.44C134.587 273.125 133.682 274.057 133.03 275.16C131.82 277.16 131.13 279.52 129.54 281.25C127.95 282.98 124.93 283.78 123.33 282.05C122.39 281.05 122.24 279.44 121.21 278.5C120.521 277.978 119.731 277.604 118.89 277.4C118.143 277.122 117.417 276.788 116.72 276.4C116.287 280.54 115.91 284.827 115.59 289.26C117.75 288.63 119.91 288.45 121.59 289.7V289.7ZM123.53 354.18C124.086 355.049 124.759 355.836 125.53 356.52C127.66 358.12 131 357.18 133.07 358.86C133.682 356.79 134.706 354.866 136.081 353.202C137.456 351.539 139.153 350.171 141.07 349.18C141.07 345.85 141.07 342.32 140.98 338.62C140.43 338.85 139.83 339 139.26 339.18C137.064 339.877 135.161 341.284 133.85 343.18C132.52 345.12 131.11 347.9 128.8 347.44C127.5 347.18 126.69 345.93 125.8 344.96C123.17 342.1 119.09 341.22 115.42 339.8C115.66 343.307 115.94 346.613 116.26 349.72C119.145 350.274 121.729 351.86 123.53 354.18V354.18ZM114.7 320.31C116.632 320.062 118.594 320.239 120.449 320.83C122.305 321.421 124.008 322.411 125.44 323.73C127.44 325.64 129.87 328.44 132.34 327.19C134.81 325.94 133.91 322.13 134.34 319.3C134.592 317.894 135.26 316.597 136.256 315.574C137.252 314.55 138.532 313.849 139.93 313.56C139.74 310.77 139.53 307.89 139.29 304.96C138.83 305.12 138.29 305.19 137.87 305.35C135.05 306.35 134.28 310.41 131.45 311.35C128.85 312.2 126.45 309.9 124.36 308.09C121.616 305.681 118.431 303.827 114.98 302.63C114.814 307.09 114.727 311.65 114.72 316.31C114.68 317.65 114.69 319 114.7 320.31V320.31ZM138.1 392.63C138.1 392.63 139.89 383.48 140.69 365.63C139.69 366.39 138.6 367.04 137.57 367.73C133.198 370.709 129.894 375.009 128.14 380L120.32 374.54C122.92 385.54 125.45 390.28 125.45 390.28L138.1 392.63Z" fill="#382C6F"/>
<path d="M112.39 429.17C112.39 429.17 112.39 429.23 112.47 429.26H146C146 429.26 146.07 429.2 146.08 429.17V429.09V429.03L150.44 410.19C152.663 400.619 153.787 390.826 153.79 381H104.6C104.601 390.805 105.718 400.578 107.93 410.13L112.33 429.13L112.39 429.17Z" fill="#FFBA4F"/>
<g style="mix-blend-mode:multiply">
<path d="M112.39 429.17C112.39 429.17 112.39 429.23 112.47 429.26H146C146 429.26 146.07 429.2 146.08 429.17V429.09V429.03L150.44 410.19C151.832 404.203 152.798 398.124 153.33 392C152.175 397.361 149.902 402.417 146.66 406.84C143.33 411.347 138.617 414.641 133.24 416.22C129.31 417.188 125.216 417.293 121.24 416.53C116.694 415.741 112.321 414.16 108.32 411.86L112.32 429.18L112.39 429.17Z" fill="#FFBA4F"/>
</g>
<path d="M515.52 212.34C515.52 211.74 510.77 211.26 504.92 211.26C499.07 211.26 494.31 211.74 494.31 212.34C494.31 212.64 497.59 237.26 497.59 237.26H512.25C512.25 237.26 515.52 212.64 515.52 212.34V212.34Z" fill="white"/>
<path d="M504.86 213.45C510.449 213.45 514.98 213.137 514.98 212.75C514.98 212.363 510.449 212.05 504.86 212.05C499.271 212.05 494.74 212.363 494.74 212.75C494.74 213.137 499.271 213.45 504.86 213.45Z" fill="#212231"/>
<path d="M512.69 233.49L510.49 231.26C520.01 221.84 519.3 218.92 519.06 218.43C518.53 217.35 515.85 217.23 514.53 217.43L514.12 214.33C514.73 214.24 520.12 213.62 521.86 217.07C523.6 220.52 520.61 225.65 512.69 233.49V233.49Z" fill="white"/>
<path d="M480.37 169.59L478.15 217.17V217.18L477.88 223.02L477.46 232.09L477.18 238.09H381.18L381.46 232.09L384.37 169.59H480.37Z" fill="#1C1737"/>
<path d="M477.46 232.09L477.18 238.09H337.06V232.09H477.46V232.09Z" fill="#D8D1FF"/>
<path d="M478.15 217.18L477.88 223.02L477.46 232.09H382.43L385.7 231.58L478.15 217.18V217.18Z" fill="#382E6E"/>
<path d="M376.31 303.54L435.06 303.74L435.97 280.64L377.39 276.28L376.31 303.54V303.54Z" fill="#382C6F"/>
<path d="M428.9 211.1L351.66 226.23L352.81 238.12H362.85L431.5 238.14L428.9 211.1V211.1Z" fill="#FF8A9F"/>
<path d="M352.8 238.11L351.65 226.22L356.86 225.2V238.11H352.8Z" fill="#FF8A9F"/>
<path d="M373.39 145.69H340.21V109.35C340.21 104.046 342.317 98.9586 346.068 95.2078C349.819 91.4571 354.906 89.35 360.21 89.35C370.88 89.35 380.59 97.73 381.1 108.35L382.45 136.12C382.515 137.351 382.329 138.582 381.903 139.739C381.478 140.896 380.821 141.954 379.974 142.849C379.126 143.744 378.106 144.458 376.974 144.946C375.842 145.435 374.623 145.688 373.39 145.69Z" fill="#FF8A9F"/>
<path d="M382.47 136.17C382.528 137.399 382.336 138.626 381.906 139.778C381.476 140.931 380.817 141.984 379.968 142.874C379.119 143.764 378.098 144.472 376.967 144.956C375.837 145.44 374.62 145.69 373.39 145.69H340.22V109.35C340.22 104.046 342.327 98.9586 346.078 95.2079C349.828 91.4571 354.915 89.35 360.22 89.35C365.63 89.3424 370.856 91.3087 374.92 94.88C378.65 98.4151 380.868 103.256 381.11 108.39L382.47 136.17Z" fill="#FF8A9F"/>
<path d="M386.59 92.0001V102.8C386.593 103.616 386.492 104.429 386.29 105.22H366V81.0601H375.72C377.152 81.064 378.57 81.3502 379.891 81.9022C381.213 82.4542 382.413 83.2613 383.422 84.2773C384.432 85.2933 385.231 86.4983 385.775 87.8235C386.318 89.1486 386.595 90.5678 386.59 92.0001V92.0001Z" fill="#603813"/>
<path d="M348.39 85.92H351.11V120.13H330.21V104.13C330.206 101.74 330.673 99.3728 331.585 97.1637C332.497 94.9545 333.836 92.9468 335.524 91.2554C337.213 89.5641 339.218 88.2223 341.426 87.3068C343.634 86.3913 346 85.92 348.39 85.92Z" fill="#603813"/>
<path d="M384 102.88H362.37C358.311 102.875 354.42 101.26 351.55 98.39C348.68 95.52 347.065 91.6289 347.06 87.57C347.06 85.6419 347.826 83.7928 349.189 82.4294C350.552 81.066 352.401 80.3 354.33 80.3C356.258 80.3 358.107 81.066 359.47 82.4294C360.834 83.7928 361.6 85.6419 361.6 87.57C361.602 87.7725 361.684 87.9658 361.829 88.1081C361.973 88.2503 362.167 88.3301 362.37 88.33H384V102.88Z" fill="#603813"/>
<path d="M376.25 95.6001H365C363.072 95.6001 361.223 94.8341 359.86 93.4707C358.496 92.1073 357.73 90.2582 357.73 88.3301C357.73 86.4019 358.496 84.5528 359.86 83.1894C361.223 81.826 363.072 81.0601 365 81.0601H376.21C378.139 81.0601 379.988 81.826 381.351 83.1894C382.715 84.5528 383.48 86.4019 383.48 88.3301C383.48 90.2582 382.715 92.1073 381.351 93.4707C379.988 94.8341 378.139 95.6001 376.21 95.6001H376.25Z" fill="#603813"/>
<path d="M392.49 99.7001C392.49 102.617 391.331 105.415 389.268 107.478C387.205 109.541 384.407 110.7 381.49 110.7C375.43 110.7 369.71 105.79 369.71 99.7001C369.71 93.6101 375.43 88.7001 381.49 88.7001C384.407 88.7001 387.205 89.859 389.268 91.9219C391.331 93.9848 392.49 96.7827 392.49 99.7001Z" fill="#603813"/>
<path d="M346.18 97.16H376.47V108.52H346.18V97.16Z" fill="#603813"/>
<path d="M347.05 108.37H370.45V122.86H347.05V108.37Z" fill="#603813"/>
<path d="M330.22 117.41H365V127.2C365 129.656 364.024 132.011 362.288 133.748C360.551 135.484 358.196 136.46 355.74 136.46H342.64C341.006 136.459 339.388 136.135 337.879 135.508C336.37 134.881 335 133.962 333.846 132.805C332.693 131.648 331.779 130.275 331.156 128.764C330.534 127.253 330.216 125.634 330.22 124V117.38V117.41Z" fill="#603813"/>
<path d="M352.71 174.39C349.395 174.39 346.215 173.073 343.871 170.729C341.527 168.385 340.21 165.205 340.21 161.89V136.45H365.21V161.89C365.211 163.532 364.889 165.158 364.261 166.675C363.633 168.192 362.713 169.571 361.552 170.732C360.391 171.893 359.012 172.813 357.495 173.441C355.978 174.069 354.352 174.391 352.71 174.39ZM370.45 128.32H375.9V117.41H370.45C369.005 117.41 367.618 117.984 366.596 119.006C365.574 120.028 365 121.415 365 122.86C365 124.306 365.574 125.694 366.596 126.717C367.617 127.741 369.004 128.317 370.45 128.32V128.32Z" fill="#FF8A9F"/>
<path d="M365 104.37H378.56V110.14C378.56 112.071 377.793 113.922 376.428 115.288C375.062 116.653 373.211 117.42 371.28 117.42H365V104.42V104.37Z" fill="#603813"/>
<path d="M352.71 174.39C359.614 174.39 365.21 168.794 365.21 161.89C365.21 154.986 359.614 149.39 352.71 149.39C345.806 149.39 340.21 154.986 340.21 161.89C340.21 168.794 345.806 174.39 352.71 174.39Z" fill="#FF8A9F"/>
<path d="M424.284 427.621C428.769 426.349 431.373 421.683 430.102 417.199C428.83 412.714 424.164 410.109 419.679 411.381C415.195 412.652 412.59 417.319 413.862 421.803C415.133 426.288 419.8 428.892 424.284 427.621Z" fill="#2AB99C"/>
<path d="M437.749 303.461C443.968 301.993 447.82 295.761 446.352 289.542C444.884 283.323 438.653 279.472 432.433 280.939C426.214 282.407 422.363 288.639 423.831 294.858C425.298 301.077 431.53 304.928 437.749 303.461Z" fill="#382C6F"/>
<path d="M413.56 418.85L423.56 291.52L446.62 293.33L430.39 420.17L413.56 418.85V418.85Z" fill="#382C6F"/>
<path d="M438.93 429.51H413.54V419.51H430.43L440.13 424.79C440.526 425.008 440.856 425.328 441.086 425.716C441.317 426.105 441.439 426.548 441.44 427C441.437 427.665 441.172 428.302 440.702 428.772C440.232 429.242 439.595 429.507 438.93 429.51V429.51Z" fill="#1C1737"/>
<path d="M374.706 427.745C379.243 426.674 382.052 422.129 380.982 417.592C379.911 413.055 375.365 410.246 370.829 411.316C366.292 412.387 363.482 416.933 364.553 421.469C365.624 426.006 370.169 428.816 374.706 427.745Z" fill="#A08EF5"/>
<path d="M388.437 303.464C394.671 302.063 398.589 295.872 397.187 289.638C395.786 283.404 389.596 279.486 383.362 280.888C377.127 282.289 373.209 288.479 374.611 294.714C376.012 300.948 382.203 304.866 388.437 303.464Z" fill="#A08EF5"/>
<path d="M364.35 418.85L374.35 291.52L397.41 293.33L381.18 420.17L364.35 418.85V418.85Z" fill="#382C6F"/>
<path d="M389.72 429.51H364.34V419.51H381.23L390.92 424.79C391.317 425.006 391.648 425.326 391.879 425.715C392.11 426.104 392.231 426.548 392.23 427C392.23 427.666 391.965 428.304 391.495 428.775C391.024 429.246 390.386 429.51 389.72 429.51V429.51Z" fill="#1C1737"/>
<path d="M191.04 238.1L189.99 248.1L170.1 429.51H165.05L179.98 238.1H191.04V238.1ZM552 238.1L553.05 248.1L572.94 429.51H577.99L563.06 238.1H552Z" fill="#FFDFDC"/>
<path d="M169.2 238.1H572.06V248.1H169.2V238.1Z" fill="#1C1737"/>
<path d="M361.52 278.1L405.46 429.51H410.51L374.58 278.1H361.52ZM315.58 278.1L271.63 429.51H266.58L302.52 278.1H315.58Z" fill="#FCCFCD"/>
<path d="M317.75 276.24C317.744 280.918 318.644 285.554 320.4 289.89H388C390.013 284.904 390.898 279.534 390.591 274.166C390.285 268.798 388.795 263.564 386.228 258.839C383.661 254.114 380.081 250.016 375.744 246.837C371.407 243.658 366.421 241.478 361.143 240.453C355.865 239.428 350.425 239.582 345.213 240.906C340.002 242.23 335.148 244.69 330.999 248.111C326.85 251.531 323.509 255.826 321.215 260.69C318.921 265.553 317.731 270.863 317.73 276.24H317.75Z" fill="#A08EF5"/>
<path d="M354.21 286.24C359.733 286.24 364.21 281.763 364.21 276.24C364.21 270.717 359.733 266.24 354.21 266.24C348.687 266.24 344.21 270.717 344.21 276.24C344.21 281.763 348.687 286.24 354.21 286.24Z" fill="#382C6F"/>
<path d="M290.313 226.761C291.596 219.338 286.619 212.28 279.196 210.996C271.773 209.713 264.715 214.69 263.431 222.113C262.148 229.536 267.125 236.594 274.548 237.877C281.971 239.161 289.029 234.184 290.313 226.761Z" fill="#FF8A9F"/>
<path d="M338.53 198.34L284.63 235.65L267.08 214.93L312.8 167.96L338.53 198.34Z" fill="#FF8A9F"/>
<path d="M346.714 186.12C349.039 175.322 342.17 164.684 331.371 162.359C320.573 160.034 309.935 166.903 307.61 177.702C305.285 188.5 312.154 199.138 322.952 201.463C333.751 203.788 344.389 196.919 346.714 186.12Z" fill="#FFBB4F"/>
<path d="M331.61 238.3C331.305 236.747 331.468 235.139 332.077 233.679C332.686 232.219 333.715 230.972 335.033 230.096C336.351 229.221 337.899 228.756 339.481 228.76C341.063 228.764 342.609 229.237 343.922 230.12C345.235 231.002 346.257 232.254 346.859 233.718C347.461 235.181 347.615 236.79 347.302 238.341C346.989 239.892 346.224 241.316 345.102 242.432C343.98 243.547 342.552 244.306 341 244.61C338.918 245.018 336.759 244.583 334.998 243.4C333.237 242.216 332.018 240.382 331.61 238.3Z" fill="#FF8A9F"/>
<path d="M346.92 233.26C347.141 234.428 347.704 235.505 348.537 236.352C349.371 237.2 350.437 237.781 351.602 238.022C352.766 238.262 353.975 238.151 355.077 237.703C356.178 237.255 357.121 236.49 357.787 235.505C358.453 234.52 358.811 233.359 358.815 232.17C358.82 230.981 358.472 229.818 357.814 228.827C357.157 227.837 356.22 227.064 355.122 226.607C354.025 226.15 352.816 226.029 351.65 226.26C350.098 226.567 348.73 227.475 347.844 228.786C346.958 230.097 346.626 231.705 346.92 233.26V233.26Z" fill="#FF8A9F"/>
<path d="M343.14 243.87L355.56 237.44L351.65 226.22L337.92 228.91L343.14 243.87Z" fill="#FF8A9F"/>
<path d="M432.536 238.107C440.048 237.541 445.679 230.992 445.113 223.48C444.547 215.968 437.998 210.338 430.486 210.904C422.974 211.47 417.344 218.019 417.91 225.53C418.476 233.042 425.024 238.673 432.536 238.107Z" fill="#FF8A9F"/>
<path d="M369.88 198.32L423.74 235.69L441.31 214.99L395.65 167.97L369.88 198.32Z" fill="#FF8A9F"/>
<path d="M369.88 198.32L414.6 229.35L433.56 207L395.65 167.97L369.88 198.32ZM338.53 198.34L293.78 229.31L274.84 206.95L312.8 167.96L338.53 198.34V198.34Z" fill="#FFBA4F"/>
<path d="M401.261 182.914C401.82 171.882 393.33 162.486 382.299 161.928C371.267 161.369 361.871 169.859 361.313 180.89C360.754 191.922 369.244 201.318 380.275 201.876C391.307 202.435 400.703 193.945 401.261 182.914Z" fill="#FFBB4F"/>
<path d="M376.36 303.54C383.899 303.54 390.01 297.429 390.01 289.89C390.01 282.351 383.899 276.24 376.36 276.24C368.821 276.24 362.71 282.351 362.71 289.89C362.71 297.429 368.821 303.54 376.36 303.54Z" fill="#A08EF5"/>
<path d="M332.08 303.54C339.618 303.54 345.73 297.429 345.73 289.89C345.73 282.351 339.618 276.24 332.08 276.24C324.541 276.24 318.43 282.351 318.43 289.89C318.43 297.429 324.541 303.54 332.08 303.54Z" fill="#A08EF5"/>
<path d="M312.86 176.58L317.75 276.24H390.67L395.56 176.58C395.653 174.684 395.36 172.789 394.699 171.01C394.037 169.231 393.021 167.605 391.711 166.231C390.402 164.857 388.827 163.764 387.082 163.018C385.337 162.271 383.458 161.888 381.56 161.89H326.85C324.953 161.889 323.075 162.274 321.331 163.021C319.587 163.768 318.013 164.861 316.705 166.235C315.396 167.609 314.381 169.234 313.72 171.013C313.059 172.791 312.766 174.685 312.86 176.58V176.58Z" fill="#FFBA4F"/>
<path d="M317.75 276.24L318.42 289.89V290.56C318.59 294.064 320.1 297.368 322.64 299.788C325.179 302.208 328.552 303.559 332.06 303.56H376.31C379.817 303.559 383.189 302.208 385.727 299.788C388.264 297.367 389.773 294.063 389.94 290.56V289.89L390.61 276.24H317.75Z" fill="#A08EF5"/>
<path d="M338.55 330.5C379.419 330.5 412.55 297.369 412.55 256.5C412.55 215.631 379.419 182.5 338.55 182.5C297.681 182.5 264.55 215.631 264.55 256.5C264.55 297.369 297.681 330.5 338.55 330.5Z" fill="#FF7494"/>
<path d="M349.55 204.26H325.55C324.224 204.26 322.952 203.733 322.014 202.796C321.077 201.858 320.55 200.586 320.55 199.26C320.55 197.934 321.077 196.662 322.014 195.724C322.952 194.787 324.224 194.26 325.55 194.26H349.55C350.876 194.26 352.148 194.787 353.085 195.724C354.023 196.662 354.55 197.934 354.55 199.26C354.55 200.586 354.023 201.858 353.085 202.796C352.148 203.733 350.876 204.26 349.55 204.26V204.26Z" fill="#FFBB4F"/>
<path d="M0 429.51H651.75V431.51H0V429.51Z" fill="#D8D1FF"/>
<path d="M420.06 179.46H448.39V181.46H420.06V179.46ZM427.06 185.63H458.23V187.63H427.06V185.63ZM435.97 191.8H464.06V193.8H435.97V191.8ZM440.39 197.96H448.39V199.96H440.39V197.96ZM453.22 197.96H464.05V199.96H453.22V197.96ZM454.06 179.46H464.06V181.46H454.06V179.46Z" fill="white"/>
<path d="M389.24 293.26C375.54 306.108 357.462 313.259 338.68 313.259C319.898 313.259 301.82 306.108 288.12 293.26H274.34C280.818 304.568 290.167 313.964 301.442 320.499C312.717 327.034 325.518 330.476 338.55 330.476C351.582 330.476 364.383 327.034 375.658 320.499C386.933 313.964 396.282 304.568 402.76 293.26H389.24Z" fill="#E66885"/>
</g>
<defs>
<linearGradient id="paint0_linear_230_276" x1="289.07" y1="106.6" x2="287.47" y2="250.6" gradientUnits="userSpaceOnUse">
<stop stop-color="white"/>
<stop offset="0.02" stop-color="white" stop-opacity="0.96"/>
<stop offset="0.14" stop-color="white" stop-opacity="0.74"/>
<stop offset="0.25" stop-color="white" stop-opacity="0.54"/>
<stop offset="0.37" stop-color="white" stop-opacity="0.37"/>
<stop offset="0.49" stop-color="white" stop-opacity="0.24"/>
<stop offset="0.61" stop-color="white" stop-opacity="0.13"/>
<stop offset="0.74" stop-color="white" stop-opacity="0.06"/>
<stop offset="0.86" stop-color="white" stop-opacity="0.01"/>
<stop offset="1" stop-color="white" stop-opacity="0"/>
</linearGradient>
<clipPath id="clip0_230_276">
<rect width="651.75" height="465.68" fill="white"/>
</clipPath>
</defs>
</svg>
