<svg xmlns="http://www.w3.org/2000/svg" viewBox="0 0 125.41 32.76"><defs><style>.cls-1{fill:#f39200;}.cls-1,.cls-2,.cls-3{stroke:#f9b233;stroke-miterlimit:10;}.cls-1,.cls-3{stroke-width:0.1px;}.cls-2,.cls-3,.cls-4{fill:#f9b233;}.cls-5{opacity:0.75;font-size:9px;fill:#e94e1b;font-family:Algerian;}</style></defs><g id="Layer_2" data-name="Layer 2"><g id="Layer_1-2" data-name="Layer 1"><polygon class="cls-1" points="80.76 0.91 80.76 0.92 80.73 0.92 80.76 0.91"/><path class="cls-2" d="M3.94,1.27.74.91Q.62,4.6.56,8.38q-.12,7.9,0,15.46a8.11,8.11,0,0,0,2,3.74,8.23,8.23,0,0,0,5,2.49c.82.1,4.23.54,6.57-2a7.26,7.26,0,0,0,1.78-5.51H8.56V16a9.52,9.52,0,0,0,2.14-.53,8.74,8.74,0,0,0,2.84-1.78,6.71,6.71,0,0,0,2-3,6.3,6.3,0,0,0,.17-2.49H8.38a13.21,13.21,0,0,0-.71-2.85A6.86,6.86,0,0,0,6.25,2.69,5.29,5.29,0,0,0,3.94,1.27Z"/><line class="cls-2" x1="20.83" y1="0.91" x2="21.01" y2="30.16"/><path class="cls-2" d="M27.58.91c.72-.78,2.24-.25,4.8,0a26.25,26.25,0,0,0,5,0,2.3,2.3,0,0,1,0,2,2.66,2.66,0,0,1-3.55.53L34,21.18H31.14L31,3.4l-3.38.35C27,2.05,27.24,1.29,27.58.91Z"/><path class="cls-2" d="M55.5,5.62q.07,5.47.17,10.93A3,3,0,0,0,56.38,19c1.29,1.19,3.86.64,4.27-.53a1,1,0,0,0,.05-.27,2.06,2.06,0,0,0-.58-1.51H63v2.49A2.76,2.76,0,0,1,62.07,21c-.42.38-.93.48-2.66.53-.82,0-1.91,0-3.2,0l-2-.71L53,18.87V4.11a2.74,2.74,0,0,1,.35-1.78A2.82,2.82,0,0,1,55,1.09a26,26,0,0,0,4.09,0,4.22,4.22,0,0,1,2.13.18,3.68,3.68,0,0,1,1.6,1.24L63,5.89H59.58c.36-.34,1.09-1.13.89-1.78-.28-.93-2.4-1.4-3.73-.53A3.06,3.06,0,0,0,55.5,5.62Z"/><polygon class="cls-3" points="93.11 0.91 93.11 21.89 90.18 21.89 90.18 10.81 87.46 18.43 87.46 18.91 84.08 18.91 81.19 10.82 81.19 21.91 78.26 21.91 78.26 0.92 80.76 0.92 81.19 2.1 85.68 14.7 90.18 2.1 90.61 0.91 93.11 0.91"/><rect class="cls-3" x="96.61" y="0.73" width="3.04" height="21.02"/><path class="cls-4" d="M75.92,1.31v20a.51.51,0,0,1-.51.51H73.58a.51.51,0,0,1-.51-.51v-8a.51.51,0,0,0-.51-.52H68.85a.51.51,0,0,0-.51.52v8a.51.51,0,0,1-.51.51H66a.51.51,0,0,1-.51-.51v-20A.51.51,0,0,1,66,.79h1.83a.51.51,0,0,1,.51.52V9.62a.51.51,0,0,0,.51.51h3.71a.51.51,0,0,0,.51-.51V1.31a.51.51,0,0,1,.51-.52h1.83A.51.51,0,0,1,75.92,1.31Z"/><path class="cls-3" d="M50.67,14.24v1.65a.7.7,0,0,1-.7.7H40.12V.71h9.81a.7.7,0,0,1,.7.71V3.07a.7.7,0,0,1-.7.7H43.45a.71.71,0,0,0-.71.71V6.41a.7.7,0,0,0,.71.7H49a.7.7,0,0,1,.7.71V9.47a.7.7,0,0,1-.7.7H43.45a.71.71,0,0,0-.71.71v1.95a.7.7,0,0,0,.71.7H50A.7.7,0,0,1,50.67,14.24Z"/><rect class="cls-4" x="40.12" y="19" width="10.55" height="2.78"/><text class="cls-5" transform="translate(29.72 30.43)">WIFI HOTSPOT </text><rect class="cls-4" x="114.74" y="18.49" width="10.53" height="2.63"/><rect class="cls-4" x="114.74" y="0.88" width="3" height="15.09"/><path class="cls-4" d="M125.1,2.53a4.6,4.6,0,0,1-.59-.73,3.72,3.72,0,0,1-.6-.59,4.62,4.62,0,0,1-1.09-.33h-8.08V3.47h10.67V3.35s0-.05,0-.08A2.73,2.73,0,0,1,125.1,2.53Z"/><rect class="cls-4" x="122.34" y="3.47" width="3.07" height="9.84"/><path class="cls-4" d="M125.29,13.92c0-.14.07-.28.12-.42v-.18h-8.6V16h5.83a4.81,4.81,0,0,1,1-.28h0a4.4,4.4,0,0,1,.7-.58,4.4,4.4,0,0,1,.75-.81C125.2,14.17,125.24,14.05,125.29,13.92Z"/><rect class="cls-4" x="114.74" y="0.88" width="3" height="15.09"/><path class="cls-4" d="M125.1,2.53a4.6,4.6,0,0,1-.59-.73,3.72,3.72,0,0,1-.6-.59,4.62,4.62,0,0,1-1.09-.33h-8.08V3.47h10.67V3.35s0-.05,0-.08A2.73,2.73,0,0,1,125.1,2.53Z"/><rect class="cls-4" x="122.34" y="3.47" width="3.07" height="9.84"/><path class="cls-4" d="M125.29,13.92c0-.14.07-.28.12-.42v-.18h-8.6V16h5.83a4.81,4.81,0,0,1,1-.28h0a4.4,4.4,0,0,1,.7-.58,4.4,4.4,0,0,1,.75-.81C125.2,14.17,125.24,14.05,125.29,13.92Z"/><rect class="cls-4" x="114.74" y="0.88" width="3" height="15.09"/><path class="cls-4" d="M125.1,2.53a4.6,4.6,0,0,1-.59-.73,3.72,3.72,0,0,1-.6-.59,4.62,4.62,0,0,1-1.09-.33h-8.08V3.47h10.67V3.35s0-.05,0-.08A2.73,2.73,0,0,1,125.1,2.53Z"/><rect class="cls-4" x="122.34" y="3.47" width="3.07" height="9.84"/><path class="cls-4" d="M125.29,13.92c0-.14.07-.28.12-.42v-.18h-8.6V16h5.83a4.81,4.81,0,0,1,1-.28h0a4.4,4.4,0,0,1,.7-.58,4.4,4.4,0,0,1,.75-.81C125.2,14.17,125.24,14.05,125.29,13.92Z"/><rect class="cls-4" x="114.74" y="0.88" width="3" height="15.09"/><path class="cls-4" d="M125.1,2.53a4.6,4.6,0,0,1-.59-.73,3.72,3.72,0,0,1-.6-.59,4.62,4.62,0,0,1-1.09-.33h-8.08V3.47h10.67V3.35s0-.05,0-.08A2.73,2.73,0,0,1,125.1,2.53Z"/><rect class="cls-4" x="122.34" y="3.47" width="3.07" height="9.84"/><path class="cls-4" d="M125.29,13.92c0-.14.07-.28.12-.42v-.18h-8.6V16h5.83a4.81,4.81,0,0,1,1-.28h0a4.4,4.4,0,0,1,.7-.58,4.4,4.4,0,0,1,.75-.81C125.2,14.17,125.24,14.05,125.29,13.92Z"/><rect class="cls-4" x="114.74" y="0.88" width="3" height="15.09"/><path class="cls-4" d="M125.1,2.53a4.6,4.6,0,0,1-.59-.73,3.72,3.72,0,0,1-.6-.59,4.62,4.62,0,0,1-1.09-.33h-8.08V3.47h10.67V3.35s0-.05,0-.08A2.73,2.73,0,0,1,125.1,2.53Z"/><rect class="cls-4" x="122.34" y="3.47" width="3.07" height="9.84"/><path class="cls-4" d="M125.29,13.92c0-.14.07-.28.12-.42v-.18h-8.6V16h5.83a4.81,4.81,0,0,1,1-.28h0a4.4,4.4,0,0,1,.7-.58,4.4,4.4,0,0,1,.75-.81C125.2,14.17,125.24,14.05,125.29,13.92Z"/><rect class="cls-4" x="114.74" y="0.88" width="3" height="15.09"/><path class="cls-4" d="M125.1,2.53a4.6,4.6,0,0,1-.59-.73,3.72,3.72,0,0,1-.6-.59,4.62,4.62,0,0,1-1.09-.33h-8.08V3.47h10.67V3.35s0-.05,0-.08A2.73,2.73,0,0,1,125.1,2.53Z"/><rect class="cls-4" x="122.34" y="3.47" width="3.07" height="9.84"/><path class="cls-4" d="M125.29,13.92c0-.14.07-.28.12-.42v-.18h-8.6V16h5.83a4.81,4.81,0,0,1,1-.28h0a4.4,4.4,0,0,1,.7-.58,4.4,4.4,0,0,1,.75-.81C125.2,14.17,125.24,14.05,125.29,13.92Z"/><rect class="cls-4" x="102.28" y="0.75" width="2.93" height="20.43"/><path class="cls-4" d="M112.32,2a4.52,4.52,0,0,1-.55-.61,4.46,4.46,0,0,1-.63-.44,5.41,5.41,0,0,1-.72-.18h-8.14V3.39h10.77a4.29,4.29,0,0,1-.26-.58A6.12,6.12,0,0,1,112.32,2Z"/><path class="cls-4" d="M113.05,3.39h-2.7v8.13h.41a4.25,4.25,0,0,1,1.1-.5,4.24,4.24,0,0,1,.72-.92,5.8,5.8,0,0,1,.19-.59,5.18,5.18,0,0,1,.31-.94V3.46Z"/><rect class="cls-4" x="103.35" y="9.38" width="7.6" height="2.94"/><path class="cls-4" d="M112.14,11h-1.79V21.18h2.73V12.56a5.32,5.32,0,0,1-.51-1A4.94,4.94,0,0,1,112.14,11Z"/></g></g></svg>