<svg xmlns="http://www.w3.org/2000/svg" viewBox="0 0 125.63 23.78"><defs><style>.cls-1{fill:#f39200;}.cls-1,.cls-2,.cls-4{stroke:#f9b233;stroke-miterlimit:10;}.cls-1,.cls-4{stroke-width:0.1px;}.cls-2,.cls-4,.cls-5{fill:#f9b233;}.cls-3{fill:#e94e1b;}</style></defs><g id="Layer_2" data-name="Layer 2"><g id="Layer_1-2" data-name="Layer 1"><polygon class="cls-1" points="80.76 0.81 80.76 0.82 80.73 0.82 80.76 0.81"/><path class="cls-2" d="M3.94,1.09.74.82Q.62,3.66.56,6.55q-.12,6.08,0,11.88a5.86,5.86,0,0,0,2,2.87,9.49,9.49,0,0,0,5,1.91c.82.08,4.23.42,6.57-1.5a4.73,4.73,0,0,0,1.78-4.24H8.56v-5A11.33,11.33,0,0,0,10.7,12a9.25,9.25,0,0,0,2.84-1.36,5.31,5.31,0,0,0,2-2.32,3.78,3.78,0,0,0,.17-1.92H8.38a8.18,8.18,0,0,0-.71-2.18A5,5,0,0,0,6.25,2.18,5.84,5.84,0,0,0,3.94,1.09Z"/><line class="cls-2" x1="20.83" y1="0.82" x2="21.01" y2="23.28"/><path class="cls-2" d="M27.58.82c.72-.61,2.24-.2,4.8,0a35.34,35.34,0,0,0,5,0,1.39,1.39,0,0,1,0,1.5c-.55.71-2.11,1-3.55.41L34,16.38H31.14L31,2.73,27.58,3C27,1.69,27.24,1.1,27.58.82Z"/><path class="cls-2" d="M55.5,4.43q.07,4.2.17,8.4a1.92,1.92,0,0,0,.71,1.91c1.29.91,3.86.49,4.27-.41a.55.55,0,0,0,.05-.2A1.41,1.41,0,0,0,60.12,13H63v1.91a2,2,0,0,1-.89,1.37c-.42.28-.93.36-2.66.41-.82,0-1.91,0-3.2,0l-2-.55L53,14.61V3.27a1.68,1.68,0,0,1,.35-1.36A2.89,2.89,0,0,1,55,1a34.13,34.13,0,0,0,4.09,0,5.48,5.48,0,0,1,2.13.14,3.75,3.75,0,0,1,1.6,1L63,4.64H59.58c.36-.26,1.09-.87.89-1.37-.28-.71-2.4-1.08-3.73-.41A2.33,2.33,0,0,0,55.5,4.43Z"/><path class="cls-3" d="M32.65,23.54a3.48,3.48,0,0,1-.69-.18,3,3,0,0,1-.59-.3l.49-.47a2.59,2.59,0,0,0,.72.32,3.22,3.22,0,0,0,.84.11,2.08,2.08,0,0,0,1-.18.53.53,0,0,0,.34-.49h0a.46.46,0,0,0-.15-.36,1.16,1.16,0,0,0-.4-.2,5,5,0,0,0-.63-.11h-.11a8.42,8.42,0,0,1-.93-.17,1.36,1.36,0,0,1-.61-.34,1,1,0,0,1-.25-.72h0a1,1,0,0,1,.23-.69,1.5,1.5,0,0,1,.69-.44,3.5,3.5,0,0,1,1.09-.15,4,4,0,0,1,.6.05,3.83,3.83,0,0,1,.58.16,3.53,3.53,0,0,1,.57.25l-.46.49a2.55,2.55,0,0,0-.64-.28,2.43,2.43,0,0,0-.65-.09,1.84,1.84,0,0,0-.9.18.56.56,0,0,0-.33.5h0a.43.43,0,0,0,.17.35A1,1,0,0,0,33,21l.69.13h.15a5.94,5.94,0,0,1,.86.19,1.39,1.39,0,0,1,.58.36,1,1,0,0,1,.23.68h0a1,1,0,0,1-.25.68,1.52,1.52,0,0,1-.71.44,3.73,3.73,0,0,1-1.13.15A4.72,4.72,0,0,1,32.65,23.54Z"/><polygon class="cls-4" points="93.11 0.81 93.11 16.93 90.18 16.93 90.18 8.42 87.46 14.27 87.46 14.64 84.08 14.64 81.19 8.43 81.19 16.94 78.26 16.94 78.26 0.82 80.76 0.82 81.19 1.73 85.68 11.4 90.18 1.73 90.61 0.81 93.11 0.81"/><rect class="cls-4" x="96.61" y="0.68" width="3.04" height="16.15"/><path class="cls-5" d="M75.92,1.12V16.45a.46.46,0,0,1-.51.39H73.58a.46.46,0,0,1-.51-.39V10.29a.46.46,0,0,0-.51-.39H68.85a.46.46,0,0,0-.51.39v6.16a.46.46,0,0,1-.51.39H66a.46.46,0,0,1-.51-.39V1.12A.46.46,0,0,1,66,.73h1.83a.46.46,0,0,1,.51.39V7.51a.47.47,0,0,0,.51.39h3.71a.47.47,0,0,0,.51-.39V1.12a.46.46,0,0,1,.51-.39h1.83A.46.46,0,0,1,75.92,1.12Z"/><path class="cls-4" d="M50.67,11.05v1.27a.63.63,0,0,1-.7.54H40.12V.66h9.81a.64.64,0,0,1,.7.55V2.47a.64.64,0,0,1-.7.55H43.45a.64.64,0,0,0-.71.54V5a.64.64,0,0,0,.71.54H49a.63.63,0,0,1,.7.54V7.39a.63.63,0,0,1-.7.54H43.45a.64.64,0,0,0-.71.54V10a.64.64,0,0,0,.71.54H50A.63.63,0,0,1,50.67,11.05Z"/><path class="cls-3" d="M44.27,23.53a1.58,1.58,0,0,1-.7-.56,1.44,1.44,0,0,1-.25-.85V20.89a1.47,1.47,0,0,1,.25-.85,1.58,1.58,0,0,1,.7-.56,2.83,2.83,0,0,1,2.09,0,1.58,1.58,0,0,1,.7.56,1.47,1.47,0,0,1,.25.85v1.23a1.44,1.44,0,0,1-.25.85,1.58,1.58,0,0,1-.7.56,2.83,2.83,0,0,1-2.09,0ZM45.93,23a1,1,0,0,0,.42-.35.89.89,0,0,0,.14-.51V20.87a.9.9,0,0,0-.14-.52,1,1,0,0,0-.42-.35,1.46,1.46,0,0,0-.62-.12,1.44,1.44,0,0,0-.61.12,1,1,0,0,0-.42.35.9.9,0,0,0-.14.52v1.28a.89.89,0,0,0,.14.51,1,1,0,0,0,.42.35,1.44,1.44,0,0,0,.61.12A1.46,1.46,0,0,0,45.93,23Z"/><path class="cls-3" d="M97.78,23.4a1.59,1.59,0,0,1-.7-.57,1.41,1.41,0,0,1-.25-.84V20.75a1.41,1.41,0,0,1,.25-.84,1.59,1.59,0,0,1,.7-.57,2.83,2.83,0,0,1,2.09,0,1.59,1.59,0,0,1,.7.57,1.41,1.41,0,0,1,.25.84V22a1.41,1.41,0,0,1-.25.84,1.59,1.59,0,0,1-.7.57,2.83,2.83,0,0,1-2.09,0Zm1.66-.53a1,1,0,0,0,.42-.34A.93.93,0,0,0,100,22V20.73a.91.91,0,0,0-.15-.52,1,1,0,0,0-.42-.34,1.44,1.44,0,0,0-.61-.12,1.49,1.49,0,0,0-.62.12,1,1,0,0,0-.42.34.9.9,0,0,0-.14.52V22a.92.92,0,0,0,.14.52,1,1,0,0,0,.42.34,1.49,1.49,0,0,0,.62.12A1.44,1.44,0,0,0,99.44,22.87Z"/><path class="cls-3" d="M56,19.16h.8v4.37H56Zm.4,3.79h3.25v.58H56.37Z"/><path class="cls-3" d="M67.67,23.41a1.55,1.55,0,0,1-.69-.56,1.65,1.65,0,0,1-.23-.88V19.19h.8V22a.9.9,0,0,0,.31.74,1.64,1.64,0,0,0,1.77,0A.9.9,0,0,0,70,22v-2.8h.79V22a1.65,1.65,0,0,1-.23.88,1.55,1.55,0,0,1-.69.56,2.9,2.9,0,0,1-1.08.19A2.81,2.81,0,0,1,67.67,23.41Z"/><path class="cls-3" d="M78.18,19.32h4v.59h-4Zm1.61.36h.8v4h-.8Z"/><path class="cls-3" d="M89.46,23.55h-.79V19.19h.79Z"/><path class="cls-3" d="M109,19.25h.72l2.78,3.38-.09.07V19.25h.78v4.36h-.73l-2.77-3.32.1-.08v3.4H109Z"/><rect class="cls-5" x="40.12" y="14.71" width="10.55" height="2.13"/><rect class="cls-5" x="114.96" y="14.88" width="10.53" height="2.07"/><rect class="cls-5" x="114.96" y="0.91" width="3" height="11.95"/><path class="cls-5" d="M125.32,2.22a4.11,4.11,0,0,1-.59-.59,4,4,0,0,1-.6-.46A5.8,5.8,0,0,1,123,.91H115V3h10.67v-.1l0-.06A2.18,2.18,0,0,1,125.32,2.22Z"/><rect class="cls-5" x="122.56" y="2.96" width="3.07" height="7.8"/><path class="cls-5" d="M125.52,11.24a2.24,2.24,0,0,1,.11-.34v-.14H117v2.1h5.83a6.27,6.27,0,0,1,1-.22h0a5,5,0,0,1,.7-.46,4.28,4.28,0,0,1,.75-.64C125.42,11.43,125.47,11.34,125.52,11.24Z"/><rect class="cls-5" x="114.96" y="0.91" width="3" height="11.95"/><path class="cls-5" d="M125.32,2.22a4.11,4.11,0,0,1-.59-.59,4,4,0,0,1-.6-.46A5.8,5.8,0,0,1,123,.91H115V3h10.67v-.1l0-.06A2.18,2.18,0,0,1,125.32,2.22Z"/><rect class="cls-5" x="122.56" y="2.96" width="3.07" height="7.8"/><path class="cls-5" d="M125.52,11.24a2.24,2.24,0,0,1,.11-.34v-.14H117v2.1h5.83a6.27,6.27,0,0,1,1-.22h0a5,5,0,0,1,.7-.46,4.28,4.28,0,0,1,.75-.64C125.42,11.43,125.47,11.34,125.52,11.24Z"/><rect class="cls-5" x="114.96" y="0.91" width="3" height="11.95"/><path class="cls-5" d="M125.32,2.22a4.11,4.11,0,0,1-.59-.59,4,4,0,0,1-.6-.46A5.8,5.8,0,0,1,123,.91H115V3h10.67v-.1l0-.06A2.18,2.18,0,0,1,125.32,2.22Z"/><rect class="cls-5" x="122.56" y="2.96" width="3.07" height="7.8"/><path class="cls-5" d="M125.52,11.24a2.24,2.24,0,0,1,.11-.34v-.14H117v2.1h5.83a6.27,6.27,0,0,1,1-.22h0a5,5,0,0,1,.7-.46,4.28,4.28,0,0,1,.75-.64C125.42,11.43,125.47,11.34,125.52,11.24Z"/><rect class="cls-5" x="114.96" y="0.91" width="3" height="11.95"/><path class="cls-5" d="M125.32,2.22a4.11,4.11,0,0,1-.59-.59,4,4,0,0,1-.6-.46A5.8,5.8,0,0,1,123,.91H115V3h10.67v-.1l0-.06A2.18,2.18,0,0,1,125.32,2.22Z"/><rect class="cls-5" x="122.56" y="2.96" width="3.07" height="7.8"/><path class="cls-5" d="M125.52,11.24a2.24,2.24,0,0,1,.11-.34v-.14H117v2.1h5.83a6.27,6.27,0,0,1,1-.22h0a5,5,0,0,1,.7-.46,4.28,4.28,0,0,1,.75-.64C125.42,11.43,125.47,11.34,125.52,11.24Z"/><rect class="cls-5" x="114.96" y="0.91" width="3" height="11.95"/><path class="cls-5" d="M125.32,2.22a4.11,4.11,0,0,1-.59-.59,4,4,0,0,1-.6-.46A5.8,5.8,0,0,1,123,.91H115V3h10.67v-.1l0-.06A2.18,2.18,0,0,1,125.32,2.22Z"/><rect class="cls-5" x="122.56" y="2.96" width="3.07" height="7.8"/><path class="cls-5" d="M125.52,11.24a2.24,2.24,0,0,1,.11-.34v-.14H117v2.1h5.83a6.27,6.27,0,0,1,1-.22h0a5,5,0,0,1,.7-.46,4.28,4.28,0,0,1,.75-.64C125.42,11.43,125.47,11.34,125.52,11.24Z"/><rect class="cls-5" x="114.96" y="0.91" width="3" height="11.95"/><path class="cls-5" d="M125.32,2.22a4.11,4.11,0,0,1-.59-.59,4,4,0,0,1-.6-.46A5.8,5.8,0,0,1,123,.91H115V3h10.67v-.1l0-.06A2.18,2.18,0,0,1,125.32,2.22Z"/><rect class="cls-5" x="122.56" y="2.96" width="3.07" height="7.8"/><path class="cls-5" d="M125.52,11.24a2.24,2.24,0,0,1,.11-.34v-.14H117v2.1h5.83a6.27,6.27,0,0,1,1-.22h0a5,5,0,0,1,.7-.46,4.28,4.28,0,0,1,.75-.64C125.42,11.43,125.47,11.34,125.52,11.24Z"/><rect class="cls-5" x="102.51" y="0.8" width="2.93" height="16.18"/><path class="cls-5" d="M112.54,1.78A5.11,5.11,0,0,1,112,1.3a4.14,4.14,0,0,1-.62-.35,5.23,5.23,0,0,1-.73-.15h-8.13V2.9h10.76a4.17,4.17,0,0,1-.26-.46A5,5,0,0,1,112.54,1.78Z"/><path class="cls-5" d="M113.27,2.9h-2.7V9.34H111a5.1,5.1,0,0,1,1.1-.4,3.88,3.88,0,0,1,.73-.73,4.52,4.52,0,0,1,.18-.47,3.68,3.68,0,0,1,.32-.74V3Z"/><rect class="cls-5" x="103.57" y="7.64" width="7.6" height="2.33"/><path class="cls-5" d="M112.36,8.89h-1.79V17h2.74V10.16a3.65,3.65,0,0,1-.52-.8A3.8,3.8,0,0,1,112.36,8.89Z"/></g></g></svg>